<?xml version="1.0" standalone="no"?>
<!DOCTYPE svg PUBLIC "-//W3C//DTD SVG 20010904//EN"
 "http://www.w3.org/TR/2001/REC-SVG-20010904/DTD/svg10.dtd">
<svg version="1.0" xmlns="http://www.w3.org/2000/svg"
 width="353.000000pt" height="353.000000pt" viewBox="0 0 353.000000 353.000000"
 preserveAspectRatio="xMidYMid meet">
<metadata>
Created by potrace 1.14, written by Peter Selinger 2001-2017
</metadata>
<g transform="translate(0.000000,353.000000) scale(0.100000,-0.100000)"
fill="#000000" stroke="none">
<path d="M2135 3518 c-107 -11 -171 -43 -247 -121 -159 -163 -127 -455 65
-582 153 -101 338 -70 483 81 94 98 141 243 115 358 -24 110 -119 208 -236
245 -76 25 -106 28 -180 19z"/>
<path d="M2637 2653 l-357 -358 -340 340 -340 340 -445 -445 -445 -444 133
-133 132 -133 318 318 318 317 340 -343 341 -343 486 486 486 486 -134 134
-135 135 -358 -357z"/>
<path d="M1647 1752 l-127 -127 340 -340 340 -340 -327 -327 -328 -328 145
-145 145 -146 452 457 c249 252 453 461 453 466 0 9 -949 958 -958 958 -4 0
-65 -57 -135 -128z"/>
<path d="M752 927 l-502 -502 148 -148 147 -147 498 498 c273 273 497 502 497
507 0 6 -64 74 -143 152 l-143 142 -502 -502z"/>
</g>
</svg>
